<svg viewBox="-7.2 -7.2 38.4 38.4" xmlns="http://www.w3.org/2000/svg"><path fill="#3b82f6" d="M14.798-6.408a5.4 5.4 0 0 0-5.596 0l-12.6 7.637A5.4 5.4 0 0 0-6 5.846v12.308a5.4 5.4 0 0 0 2.602 4.617l12.6 7.637a5.4 5.4 0 0 0 5.596 0l12.6-7.637A5.4 5.4 0 0 0 30 18.154V5.846a5.4 5.4 0 0 0-2.602-4.617z"/><g stroke-linecap="round" stroke-linejoin="round"/><path fill="none" d="M0 0h24v24H0z"/><path fill="#fff" d="M14.417 6.679C15.447 7.773 16 9 16 10.989c0 3.5-2.457 6.637-6.03 8.188l-.893-1.378c3.335-1.804 3.987-4.145 4.247-5.621-.537.278-1.24.375-1.929.311C9.591 12.322 8.17 10.841 8.17 9a3.5 3.5 0 0 1 3.5-3.5c1.073 0 2.099.49 2.748 1.179z"/></svg>
